# xmcd CD database file
#
# Track frame offsets:
#	150
#	22582
#	27791
#	52183
#	54201
#	72268
#	98117
#	126527
#	145537
#	168829
#	191053
#	213309
#	237675
#	258464
#
# Disc length: 3548 seconds
#
# Revision: 0
# Processed by: cddbd v1.5PL3 Copyright (c) Steve Scherf et al.
# Submitted via: CDex 1.50beta9
#
DISCID=c30dda0e
DTITLE=SPYRO GYRA - Three Wishes
DYEAR=1992
DGENRE=Jazz
TTITLE0=Pipo's Song
TTITLE1=Introduction to Breathless
TTITLE2=Breathless
TTITLE3=Introduction to Real Time
TTITLE4=Real Time
TTITLE5=Jennifer's Lullaby
TTITLE6=Whitewater
TTITLE7=Inside Your Love
TTITLE8=Nothing to Lose
TTITLE9=Three Wishes
TTITLE10=Gliding
TTITLE11=Cabana Carioca
TTITLE12=Rollercoaster
TTITLE13=Three Wishes (Reprise)
EXTD=YEAR: 1992
EXTT0=
EXTT1=
EXTT2=
EXTT3=
EXTT4=
EXTT5=
EXTT6=
EXTT7=
EXTT8=
EXTT9=
EXTT10=
EXTT11=
EXTT12=
EXTT13=
PLAYORDER=
